{
	"asset":{
		"generator":"Khronos glTF Blender I/O v4.4.56",
		"version":"2.0"
	},
	"scene":0,
	"scenes":[
		{
			"name":"Scene",
			"nodes":[
				0
			]
		}
	],
	"nodes":[
		{
			"mesh":0,
			"name":"Sphere",
			"rotation":[
				0,
				0,
				-0.7071066498756409,
				0.70710688829422
			],
			"translation":[
				0,
				1.071951985359192,
				0
			]
		}
	],
	"materials":[
		{
			"doubleSided":true,
			"name":"Material",
			"pbrMetallicRoughness":{
				"metallicFactor":0.4000000059604645,
				"roughnessFactor":0.5
			}
		}
	],
	"meshes":[
		{
			"name":"Sphere",
			"primitives":[
				{
					"attributes":{
						"POSITION":0,
						"NORMAL":1,
						"TEXCOORD_0":2
					},
					"indices":3,
					"material":0
				}
			]
		}
	],
	"accessors":[
		{
			"bufferView":0,
			"componentType":5126,
			"count":434163,
			"max":[
				0.9872310161590576,
				0.944079577922821,
				1.5635244846343994
			],
			"min":[
				-1.061913251876831,
				-2.344700574874878,
				-1.5635247230529785
			],
			"type":"VEC3"
		},
		{
			"bufferView":1,
			"componentType":5126,
			"count":434163,
			"type":"VEC3"
		},
		{
			"bufferView":2,
			"componentType":5126,
			"count":434163,
			"type":"VEC2"
		},
		{
			"bufferView":3,
			"componentType":5125,
			"count":2280648,
			"type":"SCALAR"
		}
	],
	"bufferViews":[
		{
			"buffer":0,
			"byteLength":5209956,
			"byteOffset":0,
			"target":34962
		},
		{
			"buffer":0,
			"byteLength":5209956,
			"byteOffset":5209956,
			"target":34962
		},
		{
			"buffer":0,
			"byteLength":3473304,
			"byteOffset":10419912,
			"target":34962
		},
		{
			"buffer":0,
			"byteLength":9122592,
			"byteOffset":13893216,
			"target":34963
		}
	],
	"buffers":[
		{
			"byteLength":23015808,
			"uri":"robot.bin"
		}
	]
}
