{
	"asset":{
		"generator":"Khronos glTF Blender I/O v4.2.70",
		"version":"2.0"
	},
	"scene":0,
	"scenes":[
		{
			"name":"Scene",
			"nodes":[
				0,
				1,
				2,
				4,
				5,
				6,
				7,
				8,
				9,
				10,
				12,
				13,
				14,
				15,
				16,
				17,
				18
			]
		}
	],
	"nodes":[
		{
			"mesh":0,
			"name":"Plane"
		},
		{
			"mesh":1,
			"name":"Plane.001",
			"rotation":[
				-0.7071068286895752,
				0,
				0,
				0.7071068286895752
			],
			"translation":[
				0,
				0,
				-137.0973358154297
			]
		},
		{
			"mesh":2,
			"name":"Plane.002",
			"rotation":[
				0,
				0,
				-0.7035409212112427,
				0.7106547951698303
			],
			"translation":[
				141.50991821289062,
				0,
				0
			]
		},
		{
			"mesh":3,
			"name":"HeadBump.001",
			"scale":[
				1.1179195642471313,
				1.1179195642471313,
				1.1179195642471313
			],
			"translation":[
				0,
				10.743922233581543,
				0
			]
		},
		{
			"children":[
				3
			],
			"mesh":4,
			"name":"Leg.001",
			"translation":[
				15.273130416870117,
				-0.06277631968259811,
				-6.909339427947998
			]
		},
		{
			"mesh":5,
			"name":"TableTop.001"
		},
		{
			"mesh":6,
			"name":"TableTopSupportLong.001",
			"scale":[
				11.901764869689941,
				1,
				0.3548858165740967
			],
			"translation":[
				-2.7048425674438477,
				11.4209623336792,
				-6.921369552612305
			]
		},
		{
			"mesh":7,
			"name":"TableTopSupportShort.001",
			"rotation":[
				0,
				0.7071068286895752,
				0,
				0.7071068286895752
			],
			"scale":[
				4.915284633636475,
				1,
				0.3548858165740967
			],
			"translation":[
				-15.263681411743164,
				11.342608451843262,
				1.0212759971618652
			]
		},
		{
			"mesh":8,
			"name":"TableDrawerSupportLong.001",
			"scale":[
				11.901764869689941,
				1,
				0.3548858165740967
			],
			"translation":[
				-2.700000047683716,
				4.300000190734863,
				-7
			]
		},
		{
			"mesh":9,
			"name":"TableDrawerSupportShort.001",
			"rotation":[
				0,
				0.7071068286895752,
				0,
				0.7071068286895752
			],
			"scale":[
				5.206362247467041,
				1,
				0.3548858165740967
			],
			"translation":[
				-15.199999809265137,
				4.300000190734863,
				1.2215325832366943
			]
		},
		{
			"mesh":10,
			"name":"TableDrawer.001",
			"scale":[
				14.80545425415039,
				0.13934968411922455,
				6.702040672302246
			],
			"translation":[
				0,
				4.317988872528076,
				0
			]
		},
		{
			"mesh":11,
			"name":"HeadBump",
			"scale":[
				1.1179195642471313,
				1.1179195642471313,
				1.1179195642471313
			],
			"translation":[
				0,
				10.743922233581543,
				0
			]
		},
		{
			"children":[
				11
			],
			"mesh":12,
			"name":"Leg",
			"translation":[
				15.273130416870117,
				-0.06277631968259811,
				-6.909339427947998
			]
		},
		{
			"mesh":13,
			"name":"TableTop"
		},
		{
			"mesh":14,
			"name":"TableTopSupportLong",
			"scale":[
				11.901764869689941,
				1,
				0.3548858165740967
			],
			"translation":[
				-2.7048425674438477,
				11.4209623336792,
				-6.921369552612305
			]
		},
		{
			"mesh":15,
			"name":"TableTopSupportShort",
			"rotation":[
				0,
				0.7071068286895752,
				0,
				0.7071068286895752
			],
			"scale":[
				4.915284633636475,
				1,
				0.3548858165740967
			],
			"translation":[
				-15.263681411743164,
				11.342608451843262,
				1.0212759971618652
			]
		},
		{
			"mesh":16,
			"name":"TableDrawerSupportLong",
			"scale":[
				11.901764869689941,
				1,
				0.3548858165740967
			],
			"translation":[
				-2.700000047683716,
				4.300000190734863,
				-7
			]
		},
		{
			"mesh":17,
			"name":"TableDrawerSupportShort",
			"rotation":[
				0,
				0.7071068286895752,
				0,
				0.7071068286895752
			],
			"scale":[
				5.206362247467041,
				1,
				0.3548858165740967
			],
			"translation":[
				-15.199999809265137,
				4.300000190734863,
				1.2215325832366943
			]
		},
		{
			"mesh":18,
			"name":"TableDrawer",
			"scale":[
				14.80545425415039,
				0.13934968411922455,
				6.702040672302246
			],
			"translation":[
				0,
				4.317988872528076,
				0
			]
		}
	],
	"materials":[
		{
			"doubleSided":true,
			"name":"Wood",
			"pbrMetallicRoughness":{
				"metallicFactor":0,
				"roughnessFactor":0.6000000238418579
			}
		}
	],
	"meshes":[
		{
			"name":"Plane",
			"primitives":[
				{
					"attributes":{
						"POSITION":0,
						"NORMAL":1,
						"TEXCOORD_0":2
					},
					"indices":3
				}
			]
		},
		{
			"name":"Plane.003",
			"primitives":[
				{
					"attributes":{
						"POSITION":4,
						"NORMAL":5,
						"TEXCOORD_0":6
					},
					"indices":3
				}
			]
		},
		{
			"name":"Plane.004",
			"primitives":[
				{
					"attributes":{
						"POSITION":7,
						"NORMAL":8,
						"TEXCOORD_0":9
					},
					"indices":3
				}
			]
		},
		{
			"name":"Plane.002",
			"primitives":[
				{
					"attributes":{
						"POSITION":10,
						"NORMAL":11,
						"TEXCOORD_0":12
					},
					"indices":13
				}
			]
		},
		{
			"name":"Cylinder.002",
			"primitives":[
				{
					"attributes":{
						"POSITION":14,
						"NORMAL":15,
						"TEXCOORD_0":16
					},
					"indices":17
				}
			]
		},
		{
			"name":"Cube.012",
			"primitives":[
				{
					"attributes":{
						"POSITION":18,
						"NORMAL":19,
						"TEXCOORD_0":20
					},
					"indices":21
				}
			]
		},
		{
			"name":"Cube.011",
			"primitives":[
				{
					"attributes":{
						"POSITION":22,
						"NORMAL":23,
						"TEXCOORD_0":24
					},
					"indices":25
				}
			]
		},
		{
			"name":"Cube.010",
			"primitives":[
				{
					"attributes":{
						"POSITION":26,
						"NORMAL":27,
						"TEXCOORD_0":28
					},
					"indices":25
				}
			]
		},
		{
			"name":"Cube.008",
			"primitives":[
				{
					"attributes":{
						"POSITION":29,
						"NORMAL":30,
						"TEXCOORD_0":31
					},
					"indices":25
				}
			]
		},
		{
			"name":"Cube.006",
			"primitives":[
				{
					"attributes":{
						"POSITION":32,
						"NORMAL":33,
						"TEXCOORD_0":34
					},
					"indices":25
				}
			]
		},
		{
			"name":"Cube.004",
			"primitives":[
				{
					"attributes":{
						"POSITION":35,
						"NORMAL":36,
						"TEXCOORD_0":37
					},
					"indices":38
				}
			]
		},
		{
			"name":"Plane.001",
			"primitives":[
				{
					"attributes":{
						"POSITION":39,
						"NORMAL":40,
						"TEXCOORD_0":41
					},
					"indices":13,
					"material":0
				}
			]
		},
		{
			"name":"Cylinder.001",
			"primitives":[
				{
					"attributes":{
						"POSITION":42,
						"NORMAL":43,
						"TEXCOORD_0":44
					},
					"indices":45,
					"material":0
				}
			]
		},
		{
			"name":"Mesh",
			"primitives":[
				{
					"attributes":{
						"POSITION":46,
						"NORMAL":47,
						"TEXCOORD_0":48
					},
					"indices":49,
					"material":0
				}
			]
		},
		{
			"name":"Mesh",
			"primitives":[
				{
					"attributes":{
						"POSITION":50,
						"NORMAL":51,
						"TEXCOORD_0":52
					},
					"indices":53,
					"material":0
				}
			]
		},
		{
			"name":"Mesh",
			"primitives":[
				{
					"attributes":{
						"POSITION":54,
						"NORMAL":55,
						"TEXCOORD_0":56
					},
					"indices":57,
					"material":0
				}
			]
		},
		{
			"name":"Mesh",
			"primitives":[
				{
					"attributes":{
						"POSITION":58,
						"NORMAL":59,
						"TEXCOORD_0":60
					},
					"indices":61,
					"material":0
				}
			]
		},
		{
			"name":"Mesh",
			"primitives":[
				{
					"attributes":{
						"POSITION":62,
						"NORMAL":63,
						"TEXCOORD_0":64
					},
					"indices":65,
					"material":0
				}
			]
		},
		{
			"name":"Cube.009",
			"primitives":[
				{
					"attributes":{
						"POSITION":66,
						"NORMAL":67,
						"TEXCOORD_0":68
					},
					"indices":38,
					"material":0
				}
			]
		}
	],
	"accessors":[
		{
			"bufferView":0,
			"componentType":5126,
			"count":4,
			"max":[
				142.11398315429688,
				-0.16192027926445007,
				142.11398315429688
			],
			"min":[
				-142.11398315429688,
				-2.119152069091797,
				-142.11398315429688
			],
			"type":"VEC3"
		},
		{
			"bufferView":1,
			"componentType":5126,
			"count":4,
			"type":"VEC3"
		},
		{
			"bufferView":2,
			"componentType":5126,
			"count":4,
			"type":"VEC2"
		},
		{
			"bufferView":3,
			"componentType":5123,
			"count":6,
			"type":"SCALAR"
		},
		{
			"bufferView":4,
			"componentType":5126,
			"count":4,
			"max":[
				142.11398315429688,
				-0.16192027926445007,
				142.11398315429688
			],
			"min":[
				-142.11398315429688,
				-2.119152069091797,
				-142.11398315429688
			],
			"type":"VEC3"
		},
		{
			"bufferView":5,
			"componentType":5126,
			"count":4,
			"type":"VEC3"
		},
		{
			"bufferView":6,
			"componentType":5126,
			"count":4,
			"type":"VEC2"
		},
		{
			"bufferView":7,
			"componentType":5126,
			"count":4,
			"max":[
				142.11398315429688,
				-0.16192027926445007,
				142.11398315429688
			],
			"min":[
				-142.11398315429688,
				-2.119152069091797,
				-142.11398315429688
			],
			"type":"VEC3"
		},
		{
			"bufferView":8,
			"componentType":5126,
			"count":4,
			"type":"VEC3"
		},
		{
			"bufferView":9,
			"componentType":5126,
			"count":4,
			"type":"VEC2"
		},
		{
			"bufferView":10,
			"componentType":5126,
			"count":384,
			"max":[
				1.0000009536743164,
				1.537865400314331,
				13.361066818237305
			],
			"min":[
				-28.324203491210938,
				0,
				-1
			],
			"type":"VEC3"
		},
		{
			"bufferView":11,
			"componentType":5126,
			"count":384,
			"type":"VEC3"
		},
		{
			"bufferView":12,
			"componentType":5126,
			"count":384,
			"type":"VEC2"
		},
		{
			"bufferView":13,
			"componentType":5123,
			"count":528,
			"type":"SCALAR"
		},
		{
			"bufferView":14,
			"componentType":5126,
			"count":18184,
			"max":[
				1.39664626121521,
				10.736477851867676,
				15.215325355529785
			],
			"min":[
				-31.942907333374023,
				-1,
				-1.39664626121521
			],
			"type":"VEC3"
		},
		{
			"bufferView":15,
			"componentType":5126,
			"count":18184,
			"type":"VEC3"
		},
		{
			"bufferView":16,
			"componentType":5126,
			"count":18184,
			"type":"VEC2"
		},
		{
			"bufferView":17,
			"componentType":5123,
			"count":28368,
			"type":"SCALAR"
		},
		{
			"bufferView":18,
			"componentType":5126,
			"count":248,
			"max":[
				26.259180068969727,
				13.413225173950195,
				13.084060668945312
			],
			"min":[
				-26.259180068969727,
				12.216601371765137,
				-13.084060668945312
			],
			"type":"VEC3"
		},
		{
			"bufferView":19,
			"componentType":5126,
			"count":248,
			"type":"VEC3"
		},
		{
			"bufferView":20,
			"componentType":5126,
			"count":248,
			"type":"VEC2"
		},
		{
			"bufferView":21,
			"componentType":5123,
			"count":372,
			"type":"SCALAR"
		},
		{
			"bufferView":22,
			"componentType":5126,
			"count":432,
			"max":[
				1.444580078125,
				1,
				40.00617599487305
			],
			"min":[
				-1,
				-0.5215322971343994,
				-1
			],
			"type":"VEC3"
		},
		{
			"bufferView":23,
			"componentType":5126,
			"count":432,
			"type":"VEC3"
		},
		{
			"bufferView":24,
			"componentType":5126,
			"count":432,
			"type":"VEC2"
		},
		{
			"bufferView":25,
			"componentType":5123,
			"count":648,
			"type":"SCALAR"
		},
		{
			"bufferView":26,
			"componentType":5126,
			"count":432,
			"max":[
				1.444580078125,
				1,
				87.02023315429688
			],
			"min":[
				-1.000000238418579,
				-0.521531343460083,
				-1
			],
			"type":"VEC3"
		},
		{
			"bufferView":27,
			"componentType":5126,
			"count":432,
			"type":"VEC3"
		},
		{
			"bufferView":28,
			"componentType":5126,
			"count":432,
			"type":"VEC2"
		},
		{
			"bufferView":29,
			"componentType":5126,
			"count":432,
			"max":[
				1.444580078125,
				1,
				40.44930648803711
			],
			"min":[
				-1,
				-0.521531343460083,
				-1
			],
			"type":"VEC3"
		},
		{
			"bufferView":30,
			"componentType":5126,
			"count":432,
			"type":"VEC3"
		},
		{
			"bufferView":31,
			"componentType":5126,
			"count":432,
			"type":"VEC2"
		},
		{
			"bufferView":32,
			"componentType":5126,
			"count":432,
			"max":[
				1.444580078125,
				1,
				86.66134643554688
			],
			"min":[
				-1.000000238418579,
				-0.521531343460083,
				-1
			],
			"type":"VEC3"
		},
		{
			"bufferView":33,
			"componentType":5126,
			"count":432,
			"type":"VEC3"
		},
		{
			"bufferView":34,
			"componentType":5126,
			"count":432,
			"type":"VEC2"
		},
		{
			"bufferView":35,
			"componentType":5126,
			"count":30,
			"max":[
				1,
				1,
				1
			],
			"min":[
				-1,
				-1,
				-1
			],
			"type":"VEC3"
		},
		{
			"bufferView":36,
			"componentType":5126,
			"count":30,
			"type":"VEC3"
		},
		{
			"bufferView":37,
			"componentType":5126,
			"count":30,
			"type":"VEC2"
		},
		{
			"bufferView":38,
			"componentType":5123,
			"count":48,
			"type":"SCALAR"
		},
		{
			"bufferView":39,
			"componentType":5126,
			"count":384,
			"max":[
				1.0000009536743164,
				1.537865400314331,
				13.361066818237305
			],
			"min":[
				-28.324203491210938,
				0,
				-1
			],
			"type":"VEC3"
		},
		{
			"bufferView":40,
			"componentType":5126,
			"count":384,
			"type":"VEC3"
		},
		{
			"bufferView":41,
			"componentType":5126,
			"count":384,
			"type":"VEC2"
		},
		{
			"bufferView":42,
			"componentType":5126,
			"count":294570,
			"max":[
				1.2583775520324707,
				10.736479759216309,
				15.077056884765625
			],
			"min":[
				-31.804637908935547,
				-0.9962731003761292,
				-1.2583775520324707
			],
			"type":"VEC3"
		},
		{
			"bufferView":43,
			"componentType":5126,
			"count":294570,
			"type":"VEC3"
		},
		{
			"bufferView":44,
			"componentType":5126,
			"count":294570,
			"type":"VEC2"
		},
		{
			"bufferView":45,
			"componentType":5125,
			"count":448512,
			"type":"SCALAR"
		},
		{
			"bufferView":46,
			"componentType":5126,
			"count":3952,
			"max":[
				26.251819610595703,
				13.410778045654297,
				13.0802001953125
			],
			"min":[
				-26.251819610595703,
				12.219049453735352,
				-13.0802001953125
			],
			"type":"VEC3"
		},
		{
			"bufferView":47,
			"componentType":5126,
			"count":3952,
			"type":"VEC3"
		},
		{
			"bufferView":48,
			"componentType":5126,
			"count":3952,
			"type":"VEC2"
		},
		{
			"bufferView":49,
			"componentType":5123,
			"count":5952,
			"type":"SCALAR"
		},
		{
			"bufferView":50,
			"componentType":5126,
			"count":6912,
			"max":[
				1.4428339004516602,
				0.9988753199577332,
				40.004730224609375
			],
			"min":[
				-0.9982537627220154,
				-0.5204075574874878,
				-0.9985519051551819
			],
			"type":"VEC3"
		},
		{
			"bufferView":51,
			"componentType":5126,
			"count":6912,
			"type":"VEC3"
		},
		{
			"bufferView":52,
			"componentType":5126,
			"count":6912,
			"type":"VEC2"
		},
		{
			"bufferView":53,
			"componentType":5123,
			"count":10368,
			"type":"SCALAR"
		},
		{
			"bufferView":54,
			"componentType":5126,
			"count":6912,
			"max":[
				1.4428339004516602,
				0.9988753199577332,
				87.01878356933594
			],
			"min":[
				-0.9982540607452393,
				-0.5204064846038818,
				-0.9985519051551819
			],
			"type":"VEC3"
		},
		{
			"bufferView":55,
			"componentType":5126,
			"count":6912,
			"type":"VEC3"
		},
		{
			"bufferView":56,
			"componentType":5126,
			"count":6912,
			"type":"VEC2"
		},
		{
			"bufferView":57,
			"componentType":5123,
			"count":10368,
			"type":"SCALAR"
		},
		{
			"bufferView":58,
			"componentType":5126,
			"count":6912,
			"max":[
				1.4428339004516602,
				0.9988753199577332,
				40.44786071777344
			],
			"min":[
				-0.9982537627220154,
				-0.5204064846038818,
				-0.9985519051551819
			],
			"type":"VEC3"
		},
		{
			"bufferView":59,
			"componentType":5126,
			"count":6912,
			"type":"VEC3"
		},
		{
			"bufferView":60,
			"componentType":5126,
			"count":6912,
			"type":"VEC2"
		},
		{
			"bufferView":61,
			"componentType":5123,
			"count":10368,
			"type":"SCALAR"
		},
		{
			"bufferView":62,
			"componentType":5126,
			"count":6912,
			"max":[
				1.4428339004516602,
				0.9988753199577332,
				86.659912109375
			],
			"min":[
				-0.9982540011405945,
				-0.5204064846038818,
				-0.9985519051551819
			],
			"type":"VEC3"
		},
		{
			"bufferView":63,
			"componentType":5126,
			"count":6912,
			"type":"VEC3"
		},
		{
			"bufferView":64,
			"componentType":5126,
			"count":6912,
			"type":"VEC2"
		},
		{
			"bufferView":65,
			"componentType":5123,
			"count":10368,
			"type":"SCALAR"
		},
		{
			"bufferView":66,
			"componentType":5126,
			"count":30,
			"max":[
				1,
				1,
				1
			],
			"min":[
				-1,
				-1,
				-1
			],
			"type":"VEC3"
		},
		{
			"bufferView":67,
			"componentType":5126,
			"count":30,
			"type":"VEC3"
		},
		{
			"bufferView":68,
			"componentType":5126,
			"count":30,
			"type":"VEC2"
		}
	],
	"bufferViews":[
		{
			"buffer":0,
			"byteLength":48,
			"byteOffset":0,
			"target":34962
		},
		{
			"buffer":0,
			"byteLength":48,
			"byteOffset":48,
			"target":34962
		},
		{
			"buffer":0,
			"byteLength":32,
			"byteOffset":96,
			"target":34962
		},
		{
			"buffer":0,
			"byteLength":12,
			"byteOffset":128,
			"target":34963
		},
		{
			"buffer":0,
			"byteLength":48,
			"byteOffset":140,
			"target":34962
		},
		{
			"buffer":0,
			"byteLength":48,
			"byteOffset":188,
			"target":34962
		},
		{
			"buffer":0,
			"byteLength":32,
			"byteOffset":236,
			"target":34962
		},
		{
			"buffer":0,
			"byteLength":48,
			"byteOffset":268,
			"target":34962
		},
		{
			"buffer":0,
			"byteLength":48,
			"byteOffset":316,
			"target":34962
		},
		{
			"buffer":0,
			"byteLength":32,
			"byteOffset":364,
			"target":34962
		},
		{
			"buffer":0,
			"byteLength":4608,
			"byteOffset":396,
			"target":34962
		},
		{
			"buffer":0,
			"byteLength":4608,
			"byteOffset":5004,
			"target":34962
		},
		{
			"buffer":0,
			"byteLength":3072,
			"byteOffset":9612,
			"target":34962
		},
		{
			"buffer":0,
			"byteLength":1056,
			"byteOffset":12684,
			"target":34963
		},
		{
			"buffer":0,
			"byteLength":218208,
			"byteOffset":13740,
			"target":34962
		},
		{
			"buffer":0,
			"byteLength":218208,
			"byteOffset":231948,
			"target":34962
		},
		{
			"buffer":0,
			"byteLength":145472,
			"byteOffset":450156,
			"target":34962
		},
		{
			"buffer":0,
			"byteLength":56736,
			"byteOffset":595628,
			"target":34963
		},
		{
			"buffer":0,
			"byteLength":2976,
			"byteOffset":652364,
			"target":34962
		},
		{
			"buffer":0,
			"byteLength":2976,
			"byteOffset":655340,
			"target":34962
		},
		{
			"buffer":0,
			"byteLength":1984,
			"byteOffset":658316,
			"target":34962
		},
		{
			"buffer":0,
			"byteLength":744,
			"byteOffset":660300,
			"target":34963
		},
		{
			"buffer":0,
			"byteLength":5184,
			"byteOffset":661044,
			"target":34962
		},
		{
			"buffer":0,
			"byteLength":5184,
			"byteOffset":666228,
			"target":34962
		},
		{
			"buffer":0,
			"byteLength":3456,
			"byteOffset":671412,
			"target":34962
		},
		{
			"buffer":0,
			"byteLength":1296,
			"byteOffset":674868,
			"target":34963
		},
		{
			"buffer":0,
			"byteLength":5184,
			"byteOffset":676164,
			"target":34962
		},
		{
			"buffer":0,
			"byteLength":5184,
			"byteOffset":681348,
			"target":34962
		},
		{
			"buffer":0,
			"byteLength":3456,
			"byteOffset":686532,
			"target":34962
		},
		{
			"buffer":0,
			"byteLength":5184,
			"byteOffset":689988,
			"target":34962
		},
		{
			"buffer":0,
			"byteLength":5184,
			"byteOffset":695172,
			"target":34962
		},
		{
			"buffer":0,
			"byteLength":3456,
			"byteOffset":700356,
			"target":34962
		},
		{
			"buffer":0,
			"byteLength":5184,
			"byteOffset":703812,
			"target":34962
		},
		{
			"buffer":0,
			"byteLength":5184,
			"byteOffset":708996,
			"target":34962
		},
		{
			"buffer":0,
			"byteLength":3456,
			"byteOffset":714180,
			"target":34962
		},
		{
			"buffer":0,
			"byteLength":360,
			"byteOffset":717636,
			"target":34962
		},
		{
			"buffer":0,
			"byteLength":360,
			"byteOffset":717996,
			"target":34962
		},
		{
			"buffer":0,
			"byteLength":240,
			"byteOffset":718356,
			"target":34962
		},
		{
			"buffer":0,
			"byteLength":96,
			"byteOffset":718596,
			"target":34963
		},
		{
			"buffer":0,
			"byteLength":4608,
			"byteOffset":718692,
			"target":34962
		},
		{
			"buffer":0,
			"byteLength":4608,
			"byteOffset":723300,
			"target":34962
		},
		{
			"buffer":0,
			"byteLength":3072,
			"byteOffset":727908,
			"target":34962
		},
		{
			"buffer":0,
			"byteLength":3534840,
			"byteOffset":730980,
			"target":34962
		},
		{
			"buffer":0,
			"byteLength":3534840,
			"byteOffset":4265820,
			"target":34962
		},
		{
			"buffer":0,
			"byteLength":2356560,
			"byteOffset":7800660,
			"target":34962
		},
		{
			"buffer":0,
			"byteLength":1794048,
			"byteOffset":10157220,
			"target":34963
		},
		{
			"buffer":0,
			"byteLength":47424,
			"byteOffset":11951268,
			"target":34962
		},
		{
			"buffer":0,
			"byteLength":47424,
			"byteOffset":11998692,
			"target":34962
		},
		{
			"buffer":0,
			"byteLength":31616,
			"byteOffset":12046116,
			"target":34962
		},
		{
			"buffer":0,
			"byteLength":11904,
			"byteOffset":12077732,
			"target":34963
		},
		{
			"buffer":0,
			"byteLength":82944,
			"byteOffset":12089636,
			"target":34962
		},
		{
			"buffer":0,
			"byteLength":82944,
			"byteOffset":12172580,
			"target":34962
		},
		{
			"buffer":0,
			"byteLength":55296,
			"byteOffset":12255524,
			"target":34962
		},
		{
			"buffer":0,
			"byteLength":20736,
			"byteOffset":12310820,
			"target":34963
		},
		{
			"buffer":0,
			"byteLength":82944,
			"byteOffset":12331556,
			"target":34962
		},
		{
			"buffer":0,
			"byteLength":82944,
			"byteOffset":12414500,
			"target":34962
		},
		{
			"buffer":0,
			"byteLength":55296,
			"byteOffset":12497444,
			"target":34962
		},
		{
			"buffer":0,
			"byteLength":20736,
			"byteOffset":12552740,
			"target":34963
		},
		{
			"buffer":0,
			"byteLength":82944,
			"byteOffset":12573476,
			"target":34962
		},
		{
			"buffer":0,
			"byteLength":82944,
			"byteOffset":12656420,
			"target":34962
		},
		{
			"buffer":0,
			"byteLength":55296,
			"byteOffset":12739364,
			"target":34962
		},
		{
			"buffer":0,
			"byteLength":20736,
			"byteOffset":12794660,
			"target":34963
		},
		{
			"buffer":0,
			"byteLength":82944,
			"byteOffset":12815396,
			"target":34962
		},
		{
			"buffer":0,
			"byteLength":82944,
			"byteOffset":12898340,
			"target":34962
		},
		{
			"buffer":0,
			"byteLength":55296,
			"byteOffset":12981284,
			"target":34962
		},
		{
			"buffer":0,
			"byteLength":20736,
			"byteOffset":13036580,
			"target":34963
		},
		{
			"buffer":0,
			"byteLength":360,
			"byteOffset":13057316,
			"target":34962
		},
		{
			"buffer":0,
			"byteLength":360,
			"byteOffset":13057676,
			"target":34962
		},
		{
			"buffer":0,
			"byteLength":240,
			"byteOffset":13058036,
			"target":34962
		}
	],
	"buffers":[
		{
			"byteLength":13058276,
			"uri":"table.bin"
		}
	]
}
